<svg width="80" height="80" viewBox="0 0 80 80" fill="none" xmlns="http://www.w3.org/2000/svg">
<path d="M51 28.996L29 29C28.447 29 28 29.443 28 29.996V43.996C28 44.549 28.447 44.996 29 44.996H51C51.553 44.996 52 44.549 52 43.996V29.996C52 29.443 51.553 28.996 51 28.996ZM51 44H29V29.996H51V44ZM53 25H27C25.343 25 24 26.342 24 28V48C24 49.654 25.338 50.994 26.99 50.998H37V52.215L30.758 53.026C30.312 53.137 30 53.537 30 53.996C30 54.549 30.447 54.996 31 54.996H49C49.553 54.996 50 54.549 50 53.996C50 53.537 49.688 53.137 49.242 53.025L43 52.215V50.998H53.01C54.662 50.994 56 49.654 56 48V28C56 26.342 54.656 25 53 25ZM54 48C54 48.551 53.551 49 53 49H27C26.448 49 26 48.551 26 48V28C26 27.448 26.448 27 27 27H53C53.551 27 54 27.448 54 28V48Z" fill="#BDBDBD"/>
</svg>
